Patient4_TMGait_0pt4_01_left_31_GRF.mot
version=1
nRows=26
nColumns=19
inDegrees=no
endheader
time	F1x	F1y	F1z	M1x	M1y	M1z	F2x	F2y	F2z	M2x	M2y	M2z	EC1x	EC1y	EC1z	EC2x	EC2y	EC2z
38.04	-3.0213	6.7037	0.49904	-0.56811	-2.3717	-3.1827	-30.6415	757.5387	-64.9818	256.6484	87.9276	884.3605	-0.0592	0.0182	-0.0073	-0.0462	0.0165	0.9585
38.0538	-1.8802	5.0577	0.33893	-0.60336	-1.548	-1.4397	-28.0945	748.9085	-62.7226	254.7355	84.0739	872.8391	-0.0592	0.0182	-0.0073	-0.0462	0.0165	0.9585
38.0676	-0.96814	3.7532	0.1994	-0.66518	-0.8606	0.13471	-25.3388	741.4382	-60.2204	253.115	79.8567	861.9865	-0.0592	0.0182	-0.0073	-0.0462	0.0165	0.9585
38.0814	-0.32099	2.8424	0.090449	-0.74428	-0.34995	1.4382	-22.5642	736.3789	-57.6738	252.1419	75.5972	853.311	-0.0592	0.0182	-0.0073	-0.0462	0.0165	0.9585
38.0951	0.09709	2.2715	0.019007	-0.82622	-0.01403	2.4142	-19.9088	734.5369	-55.2959	252.0685	71.5942	847.8547	-0.0592	0.0182	-0.0073	-0.0462	0.0165	0.9585
38.1089	0.3247	1.9529	-0.023614	-0.89573	0.1778	3.0752	-17.4165	736.1843	-53.2486	252.995	68.0479	846.0428	-0.0592	0.0182	-0.0073	-0.0462	0.0165	0.9585
38.1227	0.39947	1.8014	-0.046962	-0.94012	0.2618	3.4583	-15.075	741.0231	-51.6259	254.8449	65.0556	847.6398	-0.0592	0.0182	-0.0073	-0.0462	0.0165	0.9585
38.1365	0.37558	1.7046	-0.049843	-0.94167	0.26788	3.5551	-12.8676	748.2495	-50.4458	257.3763	62.6258	851.8262	-0.0592	0.0182	-0.0073	-0.0462	0.0165	0.9585
38.1503	0.27213	1.5571	-0.040487	-0.88067	0.22083	3.3745	-10.751	756.6974	-49.659	260.2233	60.6863	857.3432	-0.0592	0.0182	-0.0073	-0.0462	0.0165	0.9585
38.1641	0.12487	1.2455	-0.019392	-0.73069	0.13853	2.8732	-8.6852	765.0265	-49.1807	262.9534	59.1219	862.7313	-0.0592	0.0182	-0.0073	-0.0462	0.0165	0.9585
38.1779	-0.041804	0.6728	0.010278	-0.46512	0.03518	1.9953	-6.6459	771.8847	-48.8908	265.1251	57.7909	866.5209	-0.0592	0.0182	-0.0073	-0.0462	0.0165	0.9585
38.1916	-0.20979	-0.24103	0.041872	-0.060349	-0.071602	0.682	-4.6144	776.1226	-48.6907	266.3611	56.5785	867.4688	-0.0592	0.0182	-0.0073	-0.0462	0.0165	0.9585
38.2054	-0.32984	-1.5399	0.079274	0.49419	-0.16611	-1.1048	-2.5858	776.9955	-48.5011	266.4174	55.399	864.7831	-0.0592	0.0182	-0.0073	-0.0462	0.0165	0.9585
38.2192	-0.37317	-3.1797	0.11419	1.1772	-0.2243	-3.2898	-0.5425	774.2188	-48.304	265.2059	54.2281	858.1664	-0.0592	0.0182	-0.0073	-0.0462	0.0165	0.9585
38.233	-0.27104	-4.9963	0.14252	1.9218	-0.21401	-5.6728	1.5393	768.0468	-48.1136	262.8253	53.0699	847.9021	-0.0592	0.0182	-0.0073	-0.0462	0.0165	0.9585
38.2468	0.056122	-6.626	0.14058	2.584	-0.076194	-7.8031	3.7138	759.2596	-47.9906	259.5541	51.9605	834.8343	-0.0592	0.0182	-0.0073	-0.0462	0.0165	0.9585
38.2606	0.69518	-7.4543	0.084976	2.9188	0.25225	-8.9145	6.0669	749.0172	-48.0053	255.7984	50.9341	820.2004	-0.0592	0.0182	-0.0073	-0.0462	0.0165	0.9585
38.2744	1.7584	-6.5582	-0.05667	2.5567	0.85209	-7.8642	8.6488	738.6265	-48.215	252.0102	50.0241	805.4006	-0.0592	0.0182	-0.0073	-0.0462	0.0165	0.9585
38.2881	3.312	-2.6634	-0.3158	0.99169	1.7913	-3.0582	11.4597	729.2877	-48.648	248.5995	49.2574	791.7365	-0.0592	0.0182	-0.0073	-0.0462	0.0165	0.9585
38.3019	5.3884	5.7936	-0.71934	-2.3976	3.1146	7.444	14.4193	721.8518	-49.2955	245.8475	48.6567	780.1804	-0.0592	0.0182	-0.0073	-0.0462	0.0165	0.9585
38.3157	7.8942	20.5239	-1.2832	-8.2909	4.7994	25.7799	17.3491	716.5919	-50.1109	243.8277	48.239	771.1392	-0.0592	0.0182	-0.0073	-0.0462	0.0165	0.9585
38.3295	10.54	43.0573	-1.9851	-17.2972	6.6948	53.8776	20.0057	713.0312	-50.9901	242.3508	47.9846	764.252	-0.0592	0.0182	-0.0073	-0.0462	0.0165	0.9585
38.3433	12.7608	74.1692	-2.7594	-29.7282	8.4831	92.7355	22.0934	709.9282	-51.7889	240.9626	47.8502	758.3666	-0.0592	0.0182	-0.0073	-0.0462	0.0165	0.9585
38.3571	13.5819	113.0588	-3.4581	-45.2642	9.587	141.4048	23.3681	705.4014	-52.3032	239.0003	47.7186	751.6278	-0.0592	0.0182	-0.0073	-0.0462	0.0165	0.9585
38.3709	11.7338	156.3479	-3.8193	-62.5555	9.1766	195.7275	23.7094	697.2904	-52.3189	235.7288	47.42	741.8217	-0.0592	0.0182	-0.0073	-0.0462	0.0165	0.9585
38.3846	6.8405	198.0777	-3.3031	-79.1868	6.4392	248.3819	23.1722	683.8074	-51.6327	230.5665	46.7355	727.0274	-0.0592	0.0182	-0.0073	-0.0462	0.0165	0.9585
